<svg width="48" height="49" viewBox="0 0 48 49" fill="none" xmlns="http://www.w3.org/2000/svg">
<path d="M9.10749 42.799C8.18816 42.799 7.39049 42.4611 6.71449 41.7855C6.03882 41.1095 5.70099 40.3118 5.70099 39.3925V9.60746C5.70099 8.68813 6.03882 7.88846 6.71449 7.20846C7.39049 6.5288 8.18816 6.18896 9.10749 6.18896H38.8925C39.8118 6.18896 40.6115 6.5288 41.2915 7.20846C41.9712 7.88846 42.311 8.68813 42.311 9.60746V39.3925C42.311 40.3118 41.9712 41.1095 41.2915 41.7855C40.6115 42.4611 39.8118 42.799 38.8925 42.799H9.10749ZM8.99999 9.49996V39.5H39V9.49996H33.8V21.6575C33.8 22.0105 33.657 22.2686 33.371 22.432C33.0853 22.5953 32.7932 22.5858 32.4945 22.4035L29.7455 20.7585C29.4552 20.5761 29.1733 20.485 28.9 20.485C28.6267 20.485 28.3448 20.5761 28.0545 20.7585L25.3175 22.4035C25.0108 22.5858 24.7147 22.5953 24.429 22.432C24.143 22.2686 24 22.0105 24 21.6575V9.49996H8.99999Z" fill="black"/>
</svg>
