<svg width="48" height="49" viewBox="0 0 48 49" fill="none" xmlns="http://www.w3.org/2000/svg">
<path d="M31.2285 21.9215C31.9942 21.9215 32.6475 21.6511 33.1885 21.1105C33.7295 20.5695 34 19.916 34 19.15C34 18.384 33.7295 17.7305 33.1885 17.1895C32.6475 16.6488 31.9942 16.3785 31.2285 16.3785C30.4625 16.3785 29.811 16.6475 29.274 17.1855C28.737 17.7235 28.4685 18.377 28.4685 19.146C28.4685 19.9146 28.7368 20.5695 29.2735 21.1105C29.8102 21.6511 30.4618 21.9215 31.2285 21.9215ZM16.7715 21.9215C17.5375 21.9215 18.189 21.6525 18.726 21.1145C19.263 20.5765 19.5315 19.923 19.5315 19.154C19.5315 18.3853 19.2632 17.7305 18.7265 17.1895C18.1898 16.6488 17.5382 16.3785 16.7715 16.3785C16.0058 16.3785 15.3525 16.6488 14.8115 17.1895C14.2705 17.7305 14 18.384 14 19.15C14 19.916 14.2705 20.5695 14.8115 21.1105C15.3525 21.6511 16.0058 21.9215 16.7715 21.9215ZM24.0005 44.799C21.1935 44.799 18.5555 44.268 16.0865 43.206C13.6172 42.144 11.4667 40.697 9.63499 38.865C7.80299 37.0333 6.35599 34.883 5.29399 32.414C4.23199 29.9453 3.70099 27.3075 3.70099 24.5005C3.70099 21.6935 4.23199 19.0555 5.29399 16.5865C6.35599 14.1171 7.80232 11.9663 9.63299 10.134C11.4637 8.30163 13.6137 6.8528 16.083 5.78746C18.5523 4.7218 21.1908 4.18896 23.9985 4.18896C26.8062 4.18896 29.445 4.72146 31.915 5.78646C34.385 6.85146 36.536 8.29946 38.368 10.1305C40.1997 11.9618 41.648 14.1126 42.713 16.583C43.7783 19.053 44.311 21.6923 44.311 24.501C44.311 27.309 43.7782 29.9475 42.7125 32.4165C41.6472 34.8858 40.1983 37.0358 38.366 38.8665C36.5337 40.6975 34.383 42.144 31.914 43.206C29.4453 44.268 26.8075 44.799 24.0005 44.799ZM24 41.3925C28.714 41.3925 32.7078 39.7555 35.9815 36.4815C39.2555 33.2078 40.8925 29.214 40.8925 24.5C40.8925 19.786 39.2555 15.7921 35.9815 12.5185C32.7078 9.24446 28.714 7.60746 24 7.60746C19.286 7.60746 15.2922 9.24446 12.0185 12.5185C8.74449 15.7921 7.10749 19.786 7.10749 24.5C7.10749 29.214 8.74449 33.2078 12.0185 36.4815C15.2922 39.7555 19.286 41.3925 24 41.3925ZM23.975 35.45C25.9063 35.45 27.6867 35.0086 29.316 34.126C30.9453 33.2433 32.26 32.0168 33.26 30.4465C33.46 30.0518 33.4445 29.6691 33.2135 29.2985C32.9828 28.9278 32.6368 28.7425 32.1755 28.7425H15.82C15.345 28.7425 14.9962 28.9258 14.7735 29.2925C14.5512 29.6591 14.544 30.0398 14.752 30.4345C15.744 32.0055 17.0543 33.2341 18.683 34.1205C20.3117 35.0068 22.0757 35.45 23.975 35.45Z" fill="black"/>
</svg>
