<svg width="48" height="49" viewBox="0 0 48 49" fill="none" xmlns="http://www.w3.org/2000/svg">
<path d="M7.39249 32.765C6.90882 32.765 6.50599 32.6005 6.18399 32.2715C5.86199 31.9425 5.70099 31.5355 5.70099 31.0505C5.70099 30.5652 5.86199 30.1639 6.18399 29.8465C6.50599 29.5292 6.90882 29.3705 7.39249 29.3705H19.3935C19.8772 29.3705 20.282 29.535 20.608 29.864C20.9337 30.1934 21.0965 30.6005 21.0965 31.0855C21.0965 31.5709 20.9337 31.9722 20.608 32.2895C20.282 32.6065 19.8772 32.765 19.3935 32.765H7.39249ZM7.39249 24.252C6.90882 24.252 6.50599 24.0875 6.18399 23.7585C5.86199 23.4295 5.70099 23.0224 5.70099 22.537C5.70099 22.052 5.86199 21.6489 6.18399 21.3275C6.50599 21.0062 6.90882 20.8455 7.39249 20.8455H27.6835C28.1672 20.8455 28.572 21.01 28.898 21.339C29.224 21.6684 29.387 22.0755 29.387 22.5605C29.387 23.0539 29.224 23.4592 28.898 23.7765C28.572 24.0935 28.1672 24.252 27.6835 24.252H7.39249ZM7.39249 15.727C6.90882 15.727 6.50599 15.5625 6.18399 15.2335C5.86199 14.9045 5.70099 14.4974 5.70099 14.012C5.70099 13.527 5.86199 13.1259 6.18399 12.8085C6.50599 12.4912 6.90882 12.3325 7.39249 12.3325H27.6835C28.1672 12.3325 28.572 12.497 28.898 12.826C29.224 13.155 29.387 13.5622 29.387 14.0475C29.387 14.5329 29.224 14.9342 28.898 15.2515C28.572 15.5685 28.1672 15.727 27.6835 15.727H7.39249ZM34.1805 41.839C34.0312 41.947 33.8798 42.0074 33.7265 42.02C33.5732 42.0327 33.422 42.0017 33.273 41.927C33.1317 41.8604 33.0237 41.7575 32.949 41.6185C32.8743 41.4795 32.837 41.3212 32.837 41.1435V28.0555C32.837 27.8795 32.8743 27.7195 32.949 27.5755C33.0237 27.4319 33.1317 27.3227 33.273 27.248C33.422 27.1814 33.5732 27.1544 33.7265 27.167C33.8798 27.1797 34.0312 27.24 34.1805 27.348L43.3075 33.898C43.4345 33.9844 43.5263 34.0869 43.583 34.2055C43.6393 34.3242 43.6675 34.4539 43.6675 34.5945C43.6675 34.7355 43.6393 34.8649 43.583 34.9825C43.5263 35.1005 43.4345 35.1987 43.3075 35.277L34.1805 41.839Z" fill="black"/>
</svg>
